M48
; DRILL file {KiCad 5.1.5+dfsg1-2} date Sun 08 Mar 2020 05:04:15 PM EET
; FORMAT={-:-/ absolute / inch / decimal}
; #@! TF.CreationDate,2020-03-08T17:04:15+02:00
; #@! TF.GenerationSoftware,Kicad,Pcbnew,5.1.5+dfsg1-2
FMAT,2
INCH
T1C0.0098
T2C0.0315
T3C0.0394
%
G90
G05
T1
X2.3768Y-1.939
X2.3839Y-2.1165
X2.3886Y-2.3228
X2.4432Y-2.3176
X2.4495Y-2.8095
X2.5624Y-1.798
X2.5638Y-1.6965
X2.6039Y-5.0417
X2.9563Y-5.0598
X2.9714Y-2.4178
X2.998Y-1.6902
X3.0921Y-2.9792
X3.2846Y-5.0476
X3.5082Y-2.3359
X3.5372Y-2.3909
X3.5628Y-1.8429
X3.6357Y-2.8427
X3.7996Y-1.7075
X3.8106Y-4.6059
X3.8331Y-4.726
X3.8556Y-4.3575
X3.902Y-4.5669
X3.9949Y-4.6224
X4.0496Y-4.3785
X4.0605Y-2.8193
X4.0605Y-2.9688
X4.0605Y-3.1027
X4.0724Y-3.1953
X4.0776Y-3.2465
X4.0823Y-3.328
X4.0862Y-2.6161
X4.0921Y-2.7
X4.0921Y-4.7079
X4.1138Y-2.998
X4.1224Y-3.2465
X4.1236Y-3.3264
X4.127Y-3.1129
X4.1311Y-1.6799
X4.1433Y-2.811
X4.1445Y-4.5701
X4.1535Y-2.9681
X4.1583Y-2.5201
X4.1669Y-2.6343
X4.1961Y-3.248
X4.1984Y-2.685
X4.1984Y-3.1906
X4.2024Y-3.1205
X4.2059Y-3.324
X4.2256Y-2.5756
X4.2358Y-2.8154
X4.2374Y-4.552
X4.2515Y-4.3501
X4.2646Y-3.1154
X4.272Y-2.613
X4.276Y-3.2378
X4.2886Y-3.3264
X4.2952Y-3.0471
X4.3004Y-2.5098
X4.3102Y-3.0055
X4.3146Y-2.972
X4.3154Y-2.8079
X4.326Y-2.3524
X4.3311Y-3.1244
X4.3425Y-4.7079
X4.3508Y-3.3102
X4.3559Y-4.9028
X4.3583Y-3.2429
X4.361Y-2.3531
X4.368Y-2.4178
X4.3693Y-2.5323
X4.3693Y-4.5402
X4.3781Y-3.0247
X4.3846Y-3.1228
X4.3913Y-2.7866
X4.3972Y-3.1953
X4.3977Y-2.8513
X4.3977Y-2.8792
X4.3977Y-2.9454
X4.3977Y-3.0759
X4.4003Y-2.9083
X4.4008Y-3.3067
X4.4067Y-2.5831
X4.4069Y-3.0108
X4.4457Y-2.4693
X4.4677Y-2.628
X4.4819Y-4.6913
X4.5055Y-3.2748
X4.509Y-2.7877
X4.5092Y-3.0787
X4.511Y-2.589
X4.5185Y-2.963
X4.5194Y-3.0362
X4.5268Y-4.5669
X4.5445Y-2.8933
X4.5492Y-2.3705
X4.5604Y-3.048
X4.5681Y-2.5276
X4.5689Y-2.7374
X4.5709Y-2.9531
X4.5776Y-4.7276
X4.5941Y-4.5327
X4.6169Y-2.6792
X4.622Y-4.8472
X4.6272Y-2.4673
X4.6307Y-3.0016
X4.6362Y-2.8323
X4.6409Y-3.126
X4.6516Y-2.6717
X4.672Y-2.3567
X4.6799Y-3.0083
X4.6836Y-2.6773
X4.6862Y-2.5488
X4.7492Y-4.8752
X4.7568Y-2.629
X4.7818Y-2.5183
X4.7856Y-2.3572
X4.7878Y-4.9803
X4.7894Y-2.8327
X4.797Y-2.7369
X4.8054Y-2.4577
X4.808Y-2.5165
X4.8095Y-2.6093
X4.8165Y-2.9606
X4.822Y-4.5776
X4.8323Y-5.1252
X4.8614Y-5.0232
X4.8901Y-2.1958
X4.8904Y-2.8134
X4.9062Y-2.6457
X4.9072Y-2.5285
X4.9086Y-2.3986
X4.9087Y-2.4745
X4.9094Y-4.5768
X4.9121Y-4.6765
X4.9126Y-2.5697
X4.922Y-2.6012
X4.9228Y-4.8953
X4.9253Y-2.6657
X4.9253Y-2.7335
X4.9307Y-4.3173
X4.9439Y-3.5481
X4.9531Y-2.5819
X4.9575Y-2.6732
X4.9733Y-4.4546
X4.9785Y-2.2719
X4.9831Y-4.5417
X4.9852Y-2.9305
X4.9852Y-2.1453
X4.9862Y-3.5483
X4.9872Y-3.4995
X4.9883Y-2.89
X4.9995Y-2.7742
X5.0064Y-2.2723
X5.0096Y-4.6759
X5.0197Y-3.0083
X5.0213Y-2.963
X5.0261Y-2.1043
X5.0324Y-2.2722
X5.035Y-2.3087
X5.0377Y-4.3252
X5.0377Y-2.7716
X5.039Y-4.6794
X5.0438Y-3.0809
X5.052Y-4.8512
X5.0541Y-2.7305
X5.0614Y-4.924
X5.0827Y-2.9776
X5.0937Y-4.8862
X5.1268Y-4.5693
X5.1297Y-2.892
X5.1669Y-2.9761
X5.19Y-2.926
X5.2001Y-2.8794
X5.2024Y-3.648
X5.2053Y-2.7792
X5.2059Y-2.3176
X5.2059Y-4.6759
X5.2257Y-4.3201
X5.2274Y-2.8772
X5.2332Y-4.6499
X5.248Y-2.9657
X5.2673Y-4.8839
X5.2705Y-4.5685
X5.2827Y-5.1555
X5.2867Y-2.6057
X5.2984Y-2.5051
X5.2984Y-5.0067
X5.3055Y-4.6512
X5.3055Y-2.895
X5.3057Y-4.3255
X5.3059Y-4.0979
X5.3219Y-4.3038
X5.3369Y-2.1482
X5.3559Y-4.7276
X5.3647Y-4.6759
X5.3711Y-2.777
X5.3804Y-3.2264
X5.3806Y-2.8812
X5.3834Y-2.6927
X5.3839Y-4.8567
X5.387Y-3.0067
X5.3922Y-2.5353
X5.3922Y-2.6244
X5.4016Y-3.0508
X5.4064Y-2.442
X5.415Y-4.4142
X5.4165Y-5.1606
X5.4181Y-5.0067
X5.4244Y-3.6701
X5.4307Y-4.7776
X5.449Y-4.6759
X5.4499Y-3.1714
X5.4499Y-4.3249
X5.4535Y-3.128
X5.4614Y-2.8748
X5.4713Y-2.8387
X5.4822Y-4.1066
X5.4835Y-4.4815
X5.4936Y-3.5171
X5.5056Y-3.0779
X5.5109Y-3.3668
X5.5126Y-4.0285
X5.5219Y-2.6903
X5.5235Y-3.4829
X5.5311Y-4.3693
X5.5339Y-4.5673
X5.534Y-2.5947
X5.5394Y-2.5063
X5.548Y-4.7465
X5.5575Y-2.9539
X5.5575Y-4.1492
X5.56Y-3.0781
X5.5732Y-5.1287
X5.5736Y-3.9508
X5.5772Y-4.0457
X5.5988Y-4.2665
X5.6035Y-3.0126
X5.614Y-2.5463
X5.6169Y-2.7031
X5.6209Y-3.2425
X5.6239Y-4.4201
X5.6264Y-3.1933
X5.6272Y-3.0961
X5.632Y-2.3969
X5.6374Y-2.284
X5.6437Y-2.9051
X5.6547Y-4.148
X5.6587Y-4.2764
X5.6614Y-4.9488
X5.6764Y-4.5228
X5.6992Y-2.6071
X5.6996Y-4.0382
X5.7051Y-4.2433
X5.726Y-3.9358
X5.7315Y-2.9941
X5.7405Y-4.4201
X5.7461Y-5.1224
X5.7528Y-4.928
X5.7591Y-2.6894
X5.7669Y-4.1516
X5.7746Y-2.7837
X5.7906Y-2.6236
X5.7994Y-2.438
X5.8016Y-4.8709
X5.8185Y-3.6559
X5.8197Y-4.8087
X5.8217Y-4.2976
X5.8224Y-2.3213
X5.824Y-4.5878
X5.8291Y-3.1106
X5.8417Y-2.4087
X5.8421Y-4.0441
X5.8587Y-4.6984
X5.8627Y-2.7111
X5.8634Y-3.9594
X5.8657Y-4.1492
X5.866Y-2.2193
X5.8697Y-2.0225
X5.8795Y-2.2791
X5.8823Y-2.5748
X5.8925Y-2.8079
X5.9087Y-4.478
X5.9374Y-4.8744
X5.9508Y-4.1969
X5.9571Y-2.5996
X5.9646Y-4.4756
X5.9722Y-4.4201
X5.9768Y-2.5075
X5.9811Y-4.6496
X5.9827Y-2.3177
X5.9876Y-4.093
X5.9992Y-3.1205
X5.9996Y-2.2039
X5.9996Y-2.9079
X6.002Y-2.8138
X6.0028Y-2.3736
X6.0177Y-3.661
X6.022Y-2.0959
X6.0223Y-4.4021
X6.0272Y-4.6681
X6.0335Y-4.898
X6.0417Y-4.1449
X6.0591Y-2.6055
X6.0598Y-4.0931
X6.0878Y-2.2965
X6.0913Y-4.4961
X6.0937Y-2.4969
X6.1005Y-4.1042
X6.1028Y-4.3063
X6.1161Y-3.2469
X6.1236Y-4.3718
X6.139Y-3.614
X6.161Y-4.7512
X6.1634Y-4.6421
X6.1677Y-2.4024
X6.185Y-2.5079
X6.1862Y-3.0028
X6.215Y-2.0445
X6.2154Y-2.3228
X6.22Y-4.1042
X6.2283Y-4.6846
X6.2287Y-2.2776
X6.2307Y-4.9142
X6.2327Y-2.8827
X6.2354Y-3.5654
X6.2461Y-2.0618
X6.2512Y-2.2256
X6.255Y-4.5644
X6.2579Y-2.5169
X6.2691Y-4.3754
X6.2707Y-2.6128
X6.2727Y-4.777
X6.2778Y-4.54
X6.2925Y-2.4587
X6.2965Y-4.1059
X6.3106Y-3.1146
X6.3106Y-3.3142
X6.3118Y-4.2244
X6.3128Y-3.9822
X6.324Y-2.7988
X6.3421Y-4.6185
X6.3461Y-4.0894
X6.3532Y-4.3531
X6.3638Y-2.2327
X6.365Y-2.0508
X6.365Y-3.5343
X6.385Y-2.4419
X6.4091Y-3.2563
X6.4101Y-4.4576
X6.4244Y-4.6394
X6.4311Y-3.3626
X6.4343Y-4.5508
X6.4358Y-4.9079
X6.4386Y-3.6917
X6.4394Y-2.8035
X6.463Y-4.6606
X6.4697Y-2.4224
X6.4913Y-2.385
X6.4965Y-2.1051
X6.5039Y-2.8169
X6.5063Y-3.5012
X6.5197Y-2.0335
X6.5327Y-3.7594
X6.535Y-3.3209
X6.5429Y-4.8457
X6.5433Y-2.3437
X6.5504Y-4.737
X6.5517Y-3.3612
X6.5587Y-3.41
X6.5598Y-2.176
X6.5657Y-2.3079
X6.578Y-2.1118
X6.5815Y-2.4787
X6.5945Y-4.5543
X6.5988Y-2.2307
X6.6028Y-2.9079
X6.6075Y-2.548
X6.6094Y-3.502
X6.6157Y-2.0346
X6.6323Y-4.4783
X6.65Y-4.5563
X6.6654Y-2.6417
X6.6782Y-2.1124
X6.6792Y-3.5965
X6.6854Y-2.2366
X6.6858Y-3.6575
X6.6858Y-3.7547
X6.7055Y-3.5047
X6.7177Y-1.6795
X6.7433Y-2.1752
X6.7618Y-2.2327
X6.7622Y-4.4449
X6.7665Y-3.7787
X6.7713Y-2.8374
X6.7724Y-3.0508
X6.7748Y-3.1882
X6.7764Y-2.3079
X6.7772Y-2.0272
X6.7819Y-4.5146
X6.7949Y-3.6618
X6.7992Y-2.2768
X6.8185Y-2.1791
X6.8248Y-2.2461
X6.8346Y-4.3941
X6.898Y-2.0268
X6.9468Y-2.0889
X6.9496Y-5.0299
X6.9791Y-2.1984
X6.9854Y-2.4012
X6.9894Y-2.5748
X6.9984Y-2.85
X7.0059Y-3.0984
X7.015Y-2.515
X7.0709Y-2.035
X7.1224Y-2.4039
X7.126Y-1.6937
X7.1264Y-2.0268
X7.1354Y-2.302
X7.1381Y-2.1459
X7.1496Y-2.0823
X7.1681Y-2.2957
X7.1874Y-2.528
X7.1957Y-2.8823
X7.1992Y-2.413
X7.2193Y-3.0323
X7.2307Y-3.3319
X7.2417Y-2.1089
X7.2594Y-2.0311
X7.3079Y-2.0402
X7.3315Y-5.0358
X7.3362Y-2.0868
X7.4205Y-3.3094
X7.4354Y-3.1047
X7.4421Y-2.465
X7.4453Y-2.1669
X7.4504Y-2.6827
X7.4657Y-2.2681
X7.4717Y-2.8185
X7.4823Y-2.3772
X7.5484Y-1.7366
X7.5628Y-2.0939
X7.6035Y-2.3051
X7.6358Y-5.0598
X7.678Y-2.1787
X7.6827Y-3.0272
X7.6988Y-3.2508
X7.7126Y-2.7488
X7.8287Y-4.076
X7.8287Y-4.4583
X7.8417Y-2.1732
X7.8441Y-1.8445
X7.8465Y-2.485
X7.8512Y-2.9913
T2
X4.912Y-5.1358
X4.9258Y-5.0165
X5.1168Y-5.0165
X5.1305Y-5.1358
T3
X6.5528Y-4.0748
X6.5528Y-4.1748
X6.5528Y-4.2748
X6.5528Y-4.3748
X6.5528Y-4.4748
X4.7523Y-4.2339
X4.8523Y-4.2339
X4.9523Y-4.2339
X5.0523Y-4.2339
X5.1523Y-4.2339
X5.2523Y-4.2339
X6.8752Y-3.4969
X6.8752Y-3.5969
X6.8752Y-3.6969
X4.3839Y-1.6776
X4.4839Y-1.6776
X4.5839Y-1.6776
X4.6839Y-1.6776
X4.7839Y-1.6776
X4.8839Y-1.6776
X4.9839Y-1.6776
X5.0839Y-1.6776
X5.1839Y-1.6776
X5.2839Y-1.6776
X5.3839Y-1.6776
X5.4839Y-1.6776
X5.5839Y-1.6776
X5.6839Y-1.6776
X5.7839Y-1.6776
X5.8839Y-1.6776
X5.9839Y-1.6776
X6.0839Y-1.6776
X6.1839Y-1.6776
X6.2839Y-1.6776
X4.8161Y-3.2098
X4.8161Y-3.3098
X4.9161Y-3.2098
X4.9161Y-3.3098
X5.0161Y-3.2098
X5.0161Y-3.3098
X5.1161Y-3.2098
X5.1161Y-3.3098
X5.2161Y-3.2098
X5.2161Y-3.3098
T0
M30
