G04 #@! TF.GenerationSoftware,KiCad,Pcbnew,5.1.5+dfsg1-2*
G04 #@! TF.CreationDate,2020-03-08T17:17:26+02:00*
G04 #@! TF.ProjectId,HX1KADCboard,4858314b-4144-4436-926f-6172642e6b69,rev?*
G04 #@! TF.SameCoordinates,Original*
G04 #@! TF.FileFunction,Soldermask,Bot*
G04 #@! TF.FilePolarity,Negative*
%FSLAX46Y46*%
G04 Gerber Fmt 4.6, Leading zero omitted, Abs format (unit mm)*
G04 Created by KiCad (PCBNEW 5.1.5+dfsg1-2) date 2020-03-08 17:17:26*
%MOMM*%
%LPD*%
G04 APERTURE LIST*
%ADD10C,0.100000*%
%ADD11R,1.117600X1.117600*%
%ADD12O,1.700000X1.700000*%
%ADD13R,1.700000X1.700000*%
G04 APERTURE END LIST*
D10*
G36*
X125584200Y-128301900D02*
G01*
X125584200Y-131273700D01*
X125557685Y-131428408D01*
X125484661Y-131567350D01*
X125372275Y-131676926D01*
X125076200Y-131769000D01*
X124568200Y-131769000D01*
X124415144Y-131744758D01*
X124277070Y-131674406D01*
X124167494Y-131564830D01*
X124072900Y-131273700D01*
X124072900Y-129203600D01*
X123539500Y-129203600D01*
X123539500Y-128301900D01*
X125584200Y-128301900D01*
G37*
G36*
X129495800Y-128301900D02*
G01*
X129495800Y-131273700D01*
X129522315Y-131428408D01*
X129595339Y-131567350D01*
X129707725Y-131676926D01*
X130003800Y-131769000D01*
X130511800Y-131769000D01*
X130664856Y-131744758D01*
X130802930Y-131674406D01*
X130912506Y-131564830D01*
X131007100Y-131273700D01*
X131007100Y-129203600D01*
X131540500Y-129203600D01*
X131540500Y-128301900D01*
X129495800Y-128301900D01*
G37*
G36*
X129343400Y-128251100D02*
G01*
X131540500Y-128251100D01*
X131540500Y-126587400D01*
X129343400Y-126587400D01*
X129343400Y-128251100D01*
G37*
G36*
X123539500Y-128251100D02*
G01*
X125736600Y-128251100D01*
X125736600Y-126587400D01*
X123539500Y-126587400D01*
X123539500Y-128251100D01*
G37*
D11*
X129965700Y-127420013D03*
X125114300Y-127420013D03*
X130314950Y-130449979D03*
X124765050Y-130449979D03*
D12*
X166441000Y-113661000D03*
X166441000Y-111121000D03*
X166441000Y-108581000D03*
X166441000Y-106041000D03*
D13*
X166441000Y-103501000D03*
D12*
X120709000Y-107541000D03*
X123249000Y-107541000D03*
X125789000Y-107541000D03*
X128329000Y-107541000D03*
X130869000Y-107541000D03*
D13*
X133409000Y-107541000D03*
D12*
X159610000Y-42610000D03*
X157070000Y-42610000D03*
X154530000Y-42610000D03*
X151990000Y-42610000D03*
X149450000Y-42610000D03*
X146910000Y-42610000D03*
X144370000Y-42610000D03*
X141830000Y-42610000D03*
X139290000Y-42610000D03*
X136750000Y-42610000D03*
X134210000Y-42610000D03*
X131670000Y-42610000D03*
X129130000Y-42610000D03*
X126590000Y-42610000D03*
X124050000Y-42610000D03*
X121510000Y-42610000D03*
X118970000Y-42610000D03*
X116430000Y-42610000D03*
X113890000Y-42610000D03*
D13*
X111350000Y-42610000D03*
D12*
X122330000Y-84070000D03*
X122330000Y-81530000D03*
X124870000Y-84070000D03*
X124870000Y-81530000D03*
X127410000Y-84070000D03*
X127410000Y-81530000D03*
X129950000Y-84070000D03*
X129950000Y-81530000D03*
X132490000Y-84070000D03*
D13*
X132490000Y-81530000D03*
D12*
X174630000Y-93900000D03*
X174630000Y-91360000D03*
D13*
X174630000Y-88820000D03*
M02*
